<?xml version="1.0" standalone="no"?>
<!DOCTYPE svg PUBLIC "-//W3C//DTD SVG 20010904//EN"
 "http://www.w3.org/TR/2001/REC-SVG-20010904/DTD/svg10.dtd">
<svg version="1.0" xmlns="http://www.w3.org/2000/svg"
 width="415.000000pt" height="415.000000pt" viewBox="0 0 415.000000 415.000000"
 preserveAspectRatio="xMidYMid meet">
<metadata>
Created by potrace 1.11, written by Peter Selinger 2001-2013
</metadata>
<g transform="translate(0.000000,415.000000) scale(0.100000,-0.100000)"
fill="#000000" stroke="none">
<path d="M900 4145 c0 -3 12 -10 27 -16 l27 -10 -29 -24 c-17 -13 -38 -24 -47
-25 -10 0 -18 -4 -18 -8 0 -5 -9 -18 -21 -31 -24 -26 -20 -38 8 -21 15 10 27
9 56 -4 21 -8 44 -13 52 -10 8 4 18 -1 21 -10 7 -19 30 -21 37 -3 4 10 6 10 6
0 1 -7 6 -13 12 -13 5 0 7 5 4 10 -3 6 1 10 9 10 9 0 16 -4 16 -10 0 -14 27
-12 33 3 4 8 8 8 14 2 4 -5 18 -11 31 -13 18 -3 21 1 19 20 -3 18 -10 23 -33
23 -16 0 -34 3 -41 8 -6 4 -18 4 -27 1 -12 -5 -16 1 -16 24 0 50 -9 62 -47 62
-22 0 -32 4 -27 11 3 6 0 15 -7 20 -15 9 -59 12 -59 4z m115 -85 c3 -5 -1 -10
-9 -10 -9 0 -16 5 -16 10 0 6 4 10 9 10 6 0 13 -4 16 -10z"/>
<path d="M1000 4139 c0 -5 5 -7 10 -4 6 3 10 8 10 11 0 2 -4 4 -10 4 -5 0 -10
-5 -10 -11z"/>
<path d="M2410 4140 c0 -6 7 -10 15 -10 8 0 15 -4 15 -10 0 -5 -5 -10 -10 -10
-6 0 -20 -9 -32 -20 -13 -12 -36 -20 -57 -20 l-36 -1 23 -18 c26 -22 28 -31 7
-31 -20 0 -19 -10 2 -25 15 -11 10 -12 -32 -8 -49 5 -49 5 -27 -12 12 -9 27
-13 32 -10 6 3 10 0 10 -8 0 -12 -22 -14 -122 -11 -68 2 -140 3 -161 4 -37 0
-38 0 -23 22 23 32 20 37 -25 44 -40 7 -42 18 -4 27 18 4 18 5 -2 6 -18 1 -23
7 -23 26 0 28 -20 35 -20 8 -1 -16 -2 -16 -13 -3 -7 8 -22 14 -33 12 -12 -2
-28 4 -36 12 -20 19 -58 23 -85 8 -28 -15 -42 -15 -75 2 -35 19 -95 22 -132 7
-44 -18 -24 -24 40 -12 71 13 77 14 69 1 -3 -5 -19 -10 -36 -10 -16 0 -29 -5
-29 -11 0 -5 -4 -7 -10 -4 -5 3 -19 0 -31 -8 -13 -9 -16 -17 -10 -22 6 -3 11
-2 11 4 0 5 14 9 30 9 31 -1 39 -15 18 -36 -17 -17 0 -31 53 -41 33 -6 39 -10
27 -16 -10 -4 -26 -4 -35 0 -24 10 -83 12 -83 3 0 -11 30 -17 109 -23 42 -4
77 -2 80 3 7 11 184 -18 231 -38 19 -8 29 -18 26 -26 -4 -11 8 -14 56 -14 82
0 64 -18 -22 -22 -39 -2 -63 -7 -60 -13 3 -5 16 -9 30 -7 14 2 22 1 19 -3 -4
-3 -24 -8 -45 -10 -27 -4 -34 -2 -24 4 12 9 12 11 -3 17 -10 4 -23 2 -30 -5
-6 -6 -16 -11 -21 -11 -6 0 -4 5 4 11 12 8 10 9 -8 4 -13 -4 -29 -1 -37 5 -10
9 -19 8 -37 -1 -13 -7 -49 -14 -81 -16 -121 -8 -148 -52 -32 -53 46 0 10 -19
-40 -21 -22 -1 -31 -3 -20 -6 11 -2 39 -11 61 -20 23 -8 50 -14 60 -13 11 1
35 2 54 1 32 -1 33 -3 15 -14 -13 -7 -62 -12 -132 -12 -101 0 -113 2 -113 18
0 9 -6 18 -12 18 -7 1 -20 3 -28 4 -8 1 -23 3 -33 4 -9 0 -24 9 -33 20 -13 15
-28 18 -75 15 -35 -1 -59 2 -59 7 0 6 12 10 28 9 44 -3 57 -1 47 9 -23 20
-246 75 -297 73 -15 -1 -30 3 -33 8 -8 13 -75 13 -75 0 0 -10 6 -12 45 -14 39
-2 145 -41 145 -53 0 -7 16 -19 35 -27 19 -8 35 -17 35 -19 0 -3 -30 -3 -67
-1 -94 6 -156 33 -105 47 9 3 -2 3 -26 0 -28 -4 -42 -2 -42 6 0 6 -11 11 -25
11 -14 0 -25 4 -25 10 0 5 -16 17 -36 25 -23 9 -34 20 -31 28 6 17 -29 41 -39
26 -3 -6 -15 -9 -25 -6 -21 6 -25 -13 -7 -31 9 -9 7 -12 -10 -12 -12 0 -22 6
-22 13 0 7 -16 19 -35 27 -37 14 -44 25 -22 33 7 4 8 6 1 6 -6 1 -17 -6 -24
-14 -7 -8 -19 -15 -26 -15 -8 0 -14 -6 -14 -14 0 -21 -30 -43 -39 -28 -10 17
-52 -14 -49 -36 2 -10 -9 -22 -27 -31 -24 -12 -26 -16 -12 -19 17 -3 16 -5 -3
-22 -14 -12 -21 -29 -19 -47 3 -37 -9 -63 -30 -63 -14 0 -14 2 -1 11 12 9 12
10 -3 5 -10 -3 -21 -6 -23 -6 -2 0 -4 -5 -4 -11 0 -6 -13 -22 -30 -36 -20 -17
-30 -34 -30 -53 0 -16 -5 -32 -11 -35 -6 -4 -8 -13 -5 -20 3 -8 -1 -18 -8 -24
-7 -6 -19 -39 -26 -74 -7 -34 -17 -70 -22 -80 -5 -10 -11 -45 -13 -78 -3 -33
-9 -69 -15 -79 -13 -24 -13 -67 0 -72 11 -3 -12 -104 -32 -141 -7 -12 -13 -36
-13 -53 -1 -16 -9 -45 -18 -64 -20 -39 -22 -73 -5 -100 14 -23 8 -33 -16 -24
-13 5 -17 16 -14 40 2 24 -3 38 -16 47 -17 12 -20 31 -24 125 -4 92 -8 114
-23 128 -23 20 -24 52 -4 78 30 40 8 117 -29 103 -10 -4 -35 2 -56 13 -50 26
-50 26 -50 -10 0 -16 5 -30 10 -30 6 0 10 -6 10 -12 0 -7 15 -20 33 -29 36
-18 39 -30 37 -159 -1 -14 2 -53 5 -86 6 -56 4 -62 -14 -67 -13 -3 -18 -1 -14
8 9 26 -15 53 -42 48 -30 -6 -31 -13 -5 -36 14 -12 20 -29 20 -57 0 -28 6 -45
20 -57 24 -21 25 -36 6 -56 -15 -14 -50 -15 -98 -2 l-27 7 -1 -675 c0 -638 1
-676 17 -680 17 -4 17 -5 1 -6 -17 -1 -18 -40 -18 -681 l0 -680 2075 0 2075 0
0 1095 c0 859 -3 1094 -12 1093 -7 -2 -14 7 -16 20 -4 25 -32 31 -32 6 0 -8
-5 -12 -10 -9 -6 4 -8 11 -5 16 9 13 -19 11 -32 -2 -6 -6 -9 -18 -6 -25 3 -8
1 -14 -3 -14 -14 1 -44 26 -44 37 0 14 -46 37 -63 30 -10 -3 -13 -14 -10 -31
5 -25 3 -26 -36 -26 -33 0 -41 4 -41 18 0 11 12 24 27 31 26 12 26 14 10 25
-9 7 -17 18 -17 25 0 17 -14 13 -27 -9 -8 -12 -9 -21 -3 -25 6 -3 10 -1 10 4
0 6 5 11 10 11 17 0 11 -21 -12 -40 -19 -15 -20 -20 -9 -34 23 -28 7 -37 -28
-15 l-35 21 23 17 c24 18 19 31 -11 31 -12 0 -16 -4 -12 -12 5 -7 3 -8 -5 -4
-7 5 -10 13 -8 20 5 13 -50 42 -60 32 -6 -6 -16 9 -45 62 -10 19 -9 25 3 33 9
5 10 9 2 9 -8 0 -4 18 12 51 13 28 21 58 18 65 -3 8 -1 14 5 14 5 0 10 16 9
35 -1 19 -5 35 -9 35 -4 0 -8 9 -8 20 0 11 5 20 10 20 7 0 7 6 0 20 -9 16 -8
20 5 20 21 0 19 17 -5 30 -11 6 -20 18 -20 26 0 8 4 13 9 10 5 -4 16 -3 25 0
11 4 13 11 6 29 -5 13 -6 40 -3 59 6 37 -11 71 -29 59 -6 -3 -9 0 -6 8 3 9 16
13 37 11 22 -3 31 0 27 7 -4 6 -14 11 -22 11 -8 0 -14 5 -14 10 0 6 9 10 20
10 13 0 20 7 20 18 0 23 -36 62 -56 62 -8 0 -12 5 -9 10 3 6 15 10 26 10 10 0
19 -4 19 -10 0 -5 4 -10 8 -10 5 0 9 7 9 15 0 8 -9 15 -19 15 -10 0 -18 5 -18
10 0 6 8 10 17 10 12 0 8 7 -14 23 -18 12 -33 26 -33 30 0 11 26 37 38 37 9 0
42 43 42 55 0 3 -12 2 -27 -1 l-28 -7 23 25 c12 13 22 29 22 35 0 7 9 15 21
18 15 5 18 10 10 18 -6 6 -7 16 0 28 8 15 4 19 -26 25 -25 4 -35 11 -34 23 3
33 -2 41 -23 38 -12 -1 -23 3 -23 10 0 6 -3 15 -7 19 -4 4 2 19 12 35 13 17
16 30 10 34 -7 4 -7 13 0 26 8 15 7 23 -4 34 -18 19 -32 19 -39 2 -8 -22 -64
-19 -70 4 -5 18 33 59 54 59 5 0 0 9 -12 21 -16 16 -19 29 -15 52 5 28 2 34
-24 49 -20 12 -30 25 -30 41 0 14 -7 30 -15 37 -21 18 -19 29 5 23 24 -6 26 9
5 31 -8 8 -15 18 -15 21 0 14 -72 105 -79 101 -11 -7 -55 36 -69 67 -7 15 -17
25 -22 22 -5 -3 -15 5 -21 19 l-12 26 -454 0 c-289 0 -453 -4 -453 -10z m-710
-100 c20 -6 21 -8 5 -8 -11 0 -29 3 -40 8 -25 11 1 11 35 0z m247 -76 c-3 -3
-12 -4 -19 -1 -8 3 -5 6 6 6 11 1 17 -2 13 -5z m-1007 -64 c0 -5 -7 -10 -15
-10 -8 0 -15 5 -15 10 0 6 7 10 15 10 8 0 15 -4 15 -10z m1253 -37 c-7 -2 -19
-2 -25 0 -7 3 -2 5 12 5 14 0 19 -2 13 -5z m-1243 -25 c0 -17 -48 -39 -56 -27
-3 5 -11 6 -17 2 -7 -4 -7 -1 1 9 12 15 23 19 65 27 4 0 7 -5 7 -11z m-180
-16 c0 -13 -39 -46 -46 -40 -8 9 19 48 33 48 7 0 13 -4 13 -8z m1135 -12 c-3
-5 -16 -10 -28 -10 -18 0 -19 2 -7 10 20 13 43 13 35 0z m-1078 -21 c-21 -12
-13 -29 14 -29 38 0 18 -20 -38 -37 -32 -9 -62 -16 -67 -15 -13 4 -37 -19 -30
-29 6 -10 -46 -12 -70 -3 -16 6 -21 41 -8 59 4 6 19 16 34 22 23 10 27 9 31
-8 3 -10 12 -19 20 -19 15 0 78 47 85 63 2 4 13 7 25 7 20 -1 20 -2 4 -11z
m313 -19 c0 -5 -4 -10 -9 -10 -6 0 -13 5 -16 10 -3 6 1 10 9 10 9 0 16 -4 16
-10z m-141 -7 c-4 -23 3 -33 21 -33 11 0 20 5 20 10 0 16 30 11 37 -6 8 -20
-11 -32 -43 -26 -30 6 -32 -13 -1 -22 21 -7 21 -7 2 -16 -11 -5 -37 -9 -57 -9
-41 -1 -52 -18 -15 -25 100 -21 155 -22 296 -7 57 6 107 8 112 6 4 -3 40 -6
79 -6 61 -1 69 -3 53 -14 -10 -7 -39 -15 -65 -19 -52 -8 -65 -25 -20 -27 15
-1 34 -2 42 -3 8 -2 31 -3 50 -4 46 -3 20 -22 -30 -22 -19 0 -50 -4 -69 -10
-28 -8 -34 -7 -38 9 -3 12 -18 22 -41 26 -25 5 -31 9 -22 15 7 4 23 4 36 0 16
-7 24 -5 28 6 3 8 13 14 23 14 10 0 24 4 31 8 7 5 -16 6 -50 4 -35 -3 -65 -8
-68 -13 -3 -4 -35 -10 -70 -14 -36 -3 -92 -10 -125 -14 -33 -5 -63 -7 -67 -4
-5 2 -8 -1 -8 -8 0 -9 -3 -9 -14 0 -10 9 -16 9 -21 1 -14 -22 4 -40 39 -40 19
0 37 -4 40 -8 2 -4 -25 -7 -62 -5 -37 1 -70 3 -74 3 -5 0 -8 5 -8 11 0 8 4 8
13 1 16 -14 42 1 34 21 -6 15 -91 47 -126 47 -11 0 -23 5 -27 12 -5 8 5 9 39
5 51 -7 67 8 20 18 -16 4 -36 10 -46 16 -9 5 -36 7 -60 3 -39 -5 -41 -4 -23
10 17 14 65 22 104 17 6 -1 12 3 12 9 0 5 7 10 15 10 25 0 65 23 65 37 0 7 7
13 15 13 9 0 12 6 9 15 -4 8 -1 15 5 15 6 0 10 -3 10 -7z m899 -90 c-10 -2
-26 -2 -35 0 -10 3 -2 5 17 5 19 0 27 -2 18 -5z m9 -19 c-3 -3 -12 -4 -19 -1
-8 3 -5 6 6 6 11 1 17 -2 13 -5z m-59 -51 c-10 -2 -28 -2 -40 0 -13 2 -5 4 17
4 22 1 32 -1 23 -4z m-537 -53 c54 0 69 -19 17 -21 -60 -3 -101 3 -115 16 -11
11 -9 14 14 17 16 2 30 0 31 -4 2 -5 26 -8 53 -8z m-131 -24 c0 -18 -25 -27
-47 -19 -14 6 -12 9 12 19 17 7 31 13 33 14 1 0 2 -6 2 -14z m-149 -46 c11 0
17 -4 14 -10 -7 -12 -75 -14 -75 -2 0 15 13 23 28 17 7 -3 23 -5 33 -5z m474
-10 c-3 -5 1 -10 9 -10 9 0 16 5 16 10 0 6 5 10 10 10 6 0 10 -7 10 -15 0 -8
9 -15 21 -15 11 0 18 -4 15 -9 -3 -4 -43 -11 -88 -14 -46 -4 -132 -12 -193
-18 -60 -6 -122 -11 -137 -11 -16 -1 -28 -4 -28 -7 0 -3 -36 -7 -81 -7 -45 -1
-77 2 -72 7 5 5 49 16 98 24 49 9 91 18 94 20 2 3 -17 5 -42 5 -26 0 -47 4
-47 9 0 5 51 8 113 8 69 -1 120 4 132 11 25 14 179 16 170 2z m1109 -486 c9
-8 16 -20 16 -26 0 -6 6 -6 15 2 19 15 66 5 59 -13 -2 -7 0 -24 5 -38 l10 -24
1 25 1 25 17 -28 c11 -19 23 -26 35 -23 11 3 29 -6 45 -23 30 -31 62 -46 62
-30 0 7 10 8 28 4 15 -4 36 -9 47 -11 11 -1 22 -3 25 -3 3 -1 -1 -5 -9 -10
-17 -11 0 -45 29 -61 13 -7 20 -21 20 -39 0 -16 6 -34 14 -40 16 -13 42 -109
32 -118 -3 -3 1 -15 9 -27 8 -11 15 -30 15 -42 0 -19 -3 -20 -47 -13 -71 11
-200 0 -266 -22 -65 -22 -175 -30 -254 -19 -31 4 -56 3 -62 -3 -6 -6 -16 -4
-26 7 -19 18 -35 21 -35 5 0 -6 -20 -9 -52 -7 -48 3 -53 1 -56 -19 -2 -13 -8
-23 -14 -23 -18 0 -37 -33 -38 -63 0 -17 -9 -36 -22 -47 -21 -17 -22 -21 -10
-57 28 -81 35 -93 52 -93 12 0 23 -13 31 -37 6 -20 20 -46 30 -57 22 -23 25
-46 7 -46 -7 0 -2 -6 12 -13 14 -7 25 -19 25 -27 0 -8 10 -16 21 -18 12 -2 39
-19 60 -38 22 -18 48 -34 59 -34 14 0 24 -10 32 -30 8 -22 16 -28 28 -24 11 5
18 0 22 -15 3 -11 12 -21 19 -21 8 0 28 -14 46 -30 17 -17 38 -30 47 -30 9 0
28 -8 41 -17 14 -10 41 -19 60 -20 30 -1 38 3 58 34 16 26 20 38 12 43 -19 12
-7 43 20 57 19 10 25 20 25 45 0 29 4 33 28 36 15 2 27 9 27 15 0 7 20 19 45
26 53 16 54 16 61 73 5 46 -3 68 -29 72 -9 1 -32 13 -49 27 -18 13 -46 30 -63
38 -18 8 -25 15 -17 18 27 10 79 -8 110 -38 32 -31 62 -34 62 -5 0 23 -66 68
-118 81 -35 9 -47 17 -47 31 0 15 8 19 37 20 21 1 43 6 50 11 23 19 76 25 100
12 59 -31 148 -163 148 -221 0 -11 4 -27 9 -37 17 -30 51 -371 49 -486 -1 -60
4 -142 12 -182 14 -83 10 -107 -25 -147 -14 -16 -25 -41 -25 -55 0 -50 -23
-190 -30 -186 -4 3 -8 -1 -7 -8 1 -42 -4 -77 -12 -73 -9 6 -20 -20 -26 -64 -2
-14 -9 -26 -14 -28 -6 -2 -13 -19 -17 -38 -5 -28 -11 -34 -33 -35 -22 0 -23
-1 -6 -8 18 -7 18 -8 1 -18 -14 -7 -15 -12 -6 -18 8 -5 1 -18 -24 -41 -20 -19
-31 -34 -25 -34 5 0 7 -5 4 -10 -4 -6 -11 -8 -16 -5 -5 4 -9 -1 -9 -9 0 -9 -5
-16 -11 -16 -5 0 -7 -5 -3 -11 3 -6 -3 -24 -15 -40 -13 -18 -17 -29 -9 -29 9
0 9 -3 0 -12 -7 -7 -12 -20 -12 -30 0 -11 -7 -18 -20 -18 -11 0 -20 -7 -20
-16 0 -8 -4 -12 -10 -9 -5 3 -10 -3 -10 -14 0 -10 -16 -36 -35 -55 -19 -20
-35 -41 -35 -46 0 -6 -12 -15 -27 -21 -20 -7 -23 -13 -15 -21 7 -7 12 -18 12
-25 0 -17 -37 -17 -43 0 -3 6 -6 -4 -6 -24 -1 -23 -7 -39 -16 -43 -8 -3 -15
-11 -15 -18 0 -17 -35 -48 -53 -48 -8 0 -17 -3 -21 -7 -8 -8 -24 -11 -91 -19
-47 -5 -49 -5 -30 10 18 14 18 15 3 16 -10 0 -18 4 -18 9 0 5 -11 12 -24 15
-14 3 -38 18 -55 32 -17 14 -35 23 -41 19 -12 -7 -30 34 -23 52 3 7 13 13 23
13 11 0 22 5 25 10 10 16 35 12 63 -11 l27 -21 5 24 c5 20 7 21 13 6 11 -31
38 -20 55 22 10 24 24 40 34 40 26 0 31 17 11 40 -21 25 -30 25 -36 3 -4 -14
-5 -13 -6 4 0 12 -10 24 -20 28 -31 9 -35 35 -6 35 17 0 25 -6 26 -17 0 -14 2
-15 6 -3 3 8 11 18 17 22 8 5 7 8 -1 8 -7 0 -13 6 -13 14 0 9 -15 17 -40 21
-25 4 -40 12 -40 21 0 8 -4 14 -10 14 -5 0 -10 -4 -10 -10 0 -18 -35 -10 -48
11 -11 17 -16 18 -29 8 -13 -11 -18 -10 -30 6 -7 11 -24 20 -36 20 -18 0 -22
5 -20 29 2 32 13 48 20 29 3 -7 9 -13 14 -13 13 0 11 44 -2 57 -8 8 -7 17 2
32 17 26 78 36 165 27 38 -4 82 -2 105 4 41 11 41 11 83 -35 31 -33 53 -47 79
-52 l36 -5 -1 43 c0 44 -19 85 -32 72 -10 -10 -26 17 -26 45 0 12 -7 25 -15
28 -9 4 -14 14 -13 23 2 13 -4 15 -32 12 -19 -1 -47 -9 -62 -17 -47 -24 -170
-13 -238 21 -45 23 -88 28 -110 12 -12 -8 -29 -13 -40 -10 -10 3 -21 0 -24 -6
-5 -8 -13 -8 -27 -1 -13 7 -19 7 -19 0 0 -6 -14 -5 -37 4 -21 8 -47 17 -58 21
-29 9 1 25 36 18 15 -3 35 -1 45 5 11 6 27 7 41 1 31 -12 96 22 113 59 12 25
13 26 20 7 7 -19 8 -19 15 -2 4 10 5 21 1 24 -3 4 1 17 9 30 12 18 13 27 4 45
-25 49 -29 58 -29 78 0 15 7 20 29 20 17 0 32 -4 36 -10 3 -5 12 -7 20 -4 8 4
12 11 8 17 -3 6 -1 7 5 3 17 -11 48 27 55 67 4 26 2 37 -9 41 -9 3 -13 10 -9
16 3 5 -8 16 -25 25 -29 15 -34 15 -56 0 -13 -8 -24 -19 -24 -24 0 -4 -16 -24
-36 -44 -36 -36 -54 -38 -82 -10 -7 7 -22 13 -33 13 -11 0 -29 4 -39 10 -14 7
-23 6 -33 -5 -11 -10 -30 -14 -64 -11 -57 4 -79 12 -87 32 -3 8 -11 14 -17 14
-7 0 -17 8 -24 17 -19 26 -119 19 -159 -11 -51 -38 -54 -38 -69 -9 -14 26 -13
34 11 93 46 115 25 240 -40 240 -10 0 -18 5 -18 10 0 6 5 10 10 10 6 0 10 7
10 16 0 11 -6 14 -22 9 -37 -11 -42 -22 -24 -49 18 -28 21 -56 6 -56 -5 0 -10
-9 -10 -20 0 -11 4 -20 9 -20 26 0 14 -38 -22 -73 -21 -20 -42 -49 -46 -65 -5
-17 -15 -28 -28 -30 -13 -2 -24 -13 -28 -29 -8 -34 29 -77 61 -69 13 4 27 0
34 -9 9 -10 9 -15 1 -15 -17 0 -13 -30 5 -37 10 -4 22 1 29 10 17 23 25 21 25
-5 0 -17 3 -19 9 -9 10 15 23 4 76 -68 17 -22 35 -40 41 -41 24 0 24 -32 0
-53 l-24 -21 46 -35 c37 -28 48 -32 63 -22 12 7 19 7 19 1 0 -5 9 -10 19 -10
11 0 23 -4 26 -10 3 -5 17 -10 31 -10 13 0 24 -4 24 -10 0 -12 -53 -40 -77
-40 -10 0 -37 -9 -58 -20 -22 -12 -71 -27 -108 -35 -66 -15 -116 -19 -89 -8 6
2 12 22 12 43 0 30 -4 39 -21 43 -12 3 -18 10 -14 16 4 7 -4 11 -19 11 -20 0
-26 5 -26 21 0 18 -5 20 -41 17 -31 -2 -44 1 -53 15 -9 14 -8 20 4 27 8 5 11
12 7 16 -11 12 -55 -16 -61 -40 -5 -16 -8 -18 -14 -8 -5 7 -26 19 -47 26 l-39
14 35 8 c19 4 45 8 58 9 36 0 37 24 2 36 -17 6 -31 16 -31 23 0 6 -9 17 -20
24 -11 7 -20 21 -20 33 0 16 -4 19 -20 14 -11 -3 -20 -3 -20 2 0 5 -18 7 -41
5 -42 -4 -42 -18 0 -24 24 -3 24 -4 7 -21 -18 -17 -19 -17 -40 2 -12 12 -32
21 -44 21 -12 0 -22 5 -22 12 0 6 -9 3 -21 -8 -21 -19 -21 -18 -44 9 -18 20
-33 27 -60 27 -19 0 -35 -4 -35 -10 0 -5 -12 -10 -26 -10 -23 0 -24 -1 -10
-16 18 -17 22 -64 5 -64 -6 0 -17 7 -25 15 -11 11 -27 13 -57 9 -50 -8 -56
-12 -37 -25 13 -9 13 -10 0 -6 -8 2 -16 16 -18 30 -2 15 -10 27 -18 27 -21 0
-17 27 6 33 11 3 20 10 20 16 0 6 -6 8 -12 6 -25 -9 -39 13 -45 71 -3 32 -10
67 -15 77 -5 11 -4 25 3 38 7 15 8 24 1 28 -6 3 -12 24 -14 46 -2 22 -8 46
-12 54 -5 7 -8 46 -7 86 1 41 -3 105 -9 142 -6 43 -6 71 0 77 13 13 13 46 0
46 -15 0 -12 54 5 86 17 33 19 54 6 54 -6 0 -3 12 5 28 7 15 14 42 14 60 0 17
4 32 10 32 5 0 17 16 25 36 13 32 18 35 42 29 45 -11 45 -12 -7 -45 -11 -7
-12 -12 -3 -18 6 -4 13 -32 15 -62 3 -48 6 -55 26 -58 12 -2 27 -12 32 -23 6
-11 21 -19 35 -19 31 0 32 -13 2 -34 -22 -16 -21 -16 13 -10 19 3 40 11 47 16
8 7 18 -2 32 -30 17 -33 25 -39 42 -35 15 4 20 3 15 -5 -4 -7 0 -15 9 -18 9
-4 14 -13 11 -20 -3 -8 1 -14 10 -14 10 0 13 -7 8 -25 -5 -19 -1 -27 12 -32
11 -4 25 -13 33 -20 7 -8 22 -11 32 -8 14 5 19 1 19 -14 0 -22 52 -65 65 -53
5 4 5 2 1 -5 -9 -16 32 -27 58 -15 74 33 96 40 115 35 12 -3 21 -12 21 -19 0
-8 9 -14 23 -13 16 1 18 2 5 6 -19 5 -23 29 -10 51 9 14 53 12 64 -2 4 -6 12
2 19 17 12 27 14 27 71 21 53 -6 59 -5 78 17 24 30 26 59 3 59 -12 0 -7 11 22
40 31 32 42 37 57 29 17 -9 22 -5 19 14 -1 4 10 12 23 18 17 8 32 34 55 93 17
46 31 90 31 100 0 19 20 56 38 71 7 6 15 36 17 67 1 31 6 61 9 67 7 11 -13 61
-26 61 -4 0 -8 9 -8 20 0 12 -9 24 -22 29 -13 5 -33 19 -45 30 -13 12 -23 17
-23 10 0 -7 -10 -5 -27 7 -25 16 -62 18 -398 20 -203 1 -374 -2 -380 -6 -5 -4
-23 -12 -40 -18 -22 -8 -25 -11 -10 -12 14 -1 7 -8 -25 -24 -25 -13 -48 -22
-52 -19 -12 7 -9 61 3 68 6 4 9 19 8 33 -3 36 10 92 27 120 10 15 12 28 5 39
-9 16 1 34 24 44 28 12 85 52 85 60 0 4 6 6 13 3 7 -2 19 6 27 20 20 39 60 46
60 10 0 -21 38 -17 52 6 11 17 14 18 29 4 14 -13 19 -12 40 8 35 32 73 48 90
37 8 -5 30 -9 50 -9 29 0 38 4 42 21 5 17 11 21 34 16 18 -3 34 0 46 11 16 14
19 14 33 0 14 -13 22 -13 81 8 48 17 71 20 84 13 16 -8 19 -6 19 15 0 17 4 24
14 20 7 -3 16 2 19 10 9 22 27 20 27 -3 0 -26 10 -31 38 -20 18 7 21 14 16 33
-6 24 -5 24 60 19 57 -5 66 -3 66 11 0 12 6 15 24 10 13 -3 33 -1 44 5 14 7
23 8 27 1 10 -16 82 -12 89 5 7 19 40 19 55 1 10 -12 19 -12 44 -4 18 6 35 16
40 22 4 7 9 2 13 -11 8 -28 24 -30 24 -5 0 10 3 22 7 25 12 13 72 7 87 -9z
m-474 -4 c0 -5 -4 -10 -10 -10 -5 0 -10 5 -10 10 0 6 5 10 10 10 6 0 10 -4 10
-10z m-1795 -654 c37 -12 65 -27 65 -35 0 -5 -15 -12 -33 -15 -43 -8 -97 17
-97 46 0 20 15 21 65 4z m1435 -622 c0 -8 -4 -14 -10 -14 -5 0 -10 2 -10 4 0
2 -3 12 -6 20 -5 12 -2 15 10 10 9 -3 16 -12 16 -20z m-1021 -253 c1 -16 -3
-21 -8 -15 -9 9 -15 55 -11 84 3 18 17 -35 19 -69z m1041 39 c-6 -11 -13 -20
-15 -20 -3 0 -5 9 -5 20 0 11 7 20 15 20 13 0 14 -4 5 -20z m-1010 -64 c0 -14
-4 -28 -10 -31 -6 -4 -10 7 -10 24 0 17 5 31 10 31 6 0 10 -11 10 -24z m-683
-52 c-3 -3 -12 -4 -19 -1 -8 3 -5 6 6 6 11 1 17 -2 13 -5z m728 -179 c1 -33 3
-64 5 -70 8 -33 -1 -44 -36 -43 -28 1 -38 7 -50 29 -24 47 -28 110 -10 153 9
21 16 47 16 58 0 10 4 17 8 14 4 -2 14 -1 22 4 19 12 41 -61 45 -145z m785 66
c0 -6 -4 -13 -10 -16 -5 -3 -10 1 -10 9 0 9 5 16 10 16 6 0 10 -4 10 -9z
m-456 -166 c3 -8 12 -15 21 -15 8 0 15 -4 15 -10 0 -5 -7 -10 -15 -10 -9 0
-18 -7 -21 -15 -8 -19 -44 -20 -44 -1 0 8 6 17 13 20 10 5 10 7 0 12 -7 3 -13
12 -13 20 0 19 36 18 44 -1z m166 -69 c0 -3 -4 -8 -10 -11 -5 -3 -10 -1 -10 4
0 6 5 11 10 11 6 0 10 -2 10 -4z m146 -353 c-11 -11 -19 6 -11 24 8 17 8 17
12 0 3 -10 2 -21 -1 -24z m-36 -3 c0 -5 -4 -10 -10 -10 -5 0 -10 5 -10 10 0 6
5 10 10 10 6 0 10 -4 10 -10z m-60 -49 c0 -6 -4 -13 -10 -16 -5 -3 -10 1 -10
9 0 9 5 16 10 16 6 0 10 -4 10 -9z m920 -59 c0 -4 -5 -13 -11 -19 -8 -8 -6
-14 9 -22 15 -8 22 -8 25 2 2 6 8 8 13 4 11 -11 -15 -27 -45 -27 -16 0 -21 4
-18 15 4 8 2 17 -3 20 -6 4 -5 12 3 20 13 16 27 19 27 7z m-263 -8 c-3 -3 -12
-4 -19 -1 -8 3 -5 6 6 6 11 1 17 -2 13 -5z m53 -19 c6 -8 22 -13 33 -12 14 1
22 -4 22 -13 0 -8 -9 -15 -20 -15 -11 0 -26 -4 -33 -8 -12 -8 -16 -3 -25 41
-6 25 5 29 23 7z m-300 -20 c0 -9 -6 -12 -15 -9 -10 4 -15 0 -15 -12 0 -16 -2
-16 -10 -4 -5 9 -5 19 2 27 14 18 38 16 38 -2z m179 9 c57 -12 33 -53 -31 -54
-13 0 -18 8 -18 30 0 32 2 33 49 24z m246 -4 c8 -14 -21 -24 -42 -15 -17 7
-16 8 2 15 27 12 33 12 40 0z m-185 -20 c0 -5 -4 -10 -10 -10 -5 0 -10 5 -10
10 0 6 5 10 10 10 6 0 10 -4 10 -10z m-230 -20 c0 -5 -4 -10 -10 -10 -5 0 -10
5 -10 10 0 6 5 10 10 10 6 0 10 -4 10 -10z"/>
<path d="M880 3656 c0 -2 7 -6 15 -10 8 -3 15 -1 15 4 0 6 -7 10 -15 10 -8 0
-15 -2 -15 -4z"/>
<path d="M1708 2793 c6 -2 18 -2 25 0 6 3 1 5 -13 5 -14 0 -19 -2 -12 -5z"/>
<path d="M1746 1655 c4 -8 8 -15 10 -15 2 0 4 7 4 15 0 8 -4 15 -10 15 -5 0
-7 -7 -4 -15z"/>
<path d="M1780 1644 c-11 -12 -10 -18 3 -32 16 -15 18 -15 34 0 13 14 14 20 3
32 -7 9 -16 16 -20 16 -4 0 -13 -7 -20 -16z"/>
<path d="M2575 1420 c3 -5 10 -10 16 -10 5 0 9 5 9 10 0 6 -7 10 -16 10 -8 0
-12 -4 -9 -10z"/>
<path d="M2587 1393 c-9 -9 -9 -43 1 -43 4 0 15 6 24 14 13 10 15 15 6 24 -14
14 -22 15 -31 5z"/>
<path d="M1608 1161 c-16 -15 -28 -33 -28 -39 0 -7 -9 -12 -20 -12 -21 0 -26
-16 -11 -39 5 -8 16 -11 30 -6 17 5 21 2 21 -14 0 -15 -6 -21 -21 -21 -11 0
-17 -4 -14 -10 3 -5 15 -10 25 -10 13 0 23 14 35 50 9 28 21 50 26 50 5 0 9
18 9 40 0 48 -14 51 -52 11z"/>
<path d="M1497 1123 c-3 -5 1 -13 8 -20 10 -10 14 -9 18 1 8 21 -15 37 -26 19z"/>
<path d="M2920 1045 c0 -8 9 -15 20 -15 24 0 27 15 4 24 -22 9 -24 8 -24 -9z"/>
<path d="M2770 957 c0 -8 7 -20 15 -27 11 -9 15 -10 15 -1 0 7 -7 19 -15 27
-13 13 -15 13 -15 1z"/>
<path d="M1792 865 c-10 -21 -9 -25 3 -25 8 0 15 4 15 9 0 5 3 16 6 25 10 26
-12 18 -24 -9z"/>
<path d="M2790 843 c0 -4 5 -15 10 -23 8 -13 10 -13 10 2 0 9 -4 20 -10 23 -5
3 -10 3 -10 -2z"/>
<path d="M2910 430 c0 -5 5 -10 10 -10 6 0 10 5 10 10 0 6 -4 10 -10 10 -5 0
-10 -4 -10 -10z"/>
<path d="M2178 4133 c7 -3 16 -2 19 1 4 3 -2 6 -13 5 -11 0 -14 -3 -6 -6z"/>
<path d="M2224 4125 c10 -7 35 -13 55 -13 21 0 56 -3 79 -7 28 -4 42 -3 42 4
0 6 -6 11 -12 12 -7 0 -22 2 -33 4 -11 1 -49 5 -85 9 -57 5 -63 4 -46 -9z"/>
<path d="M2268 4083 c6 -2 18 -2 25 0 6 3 1 5 -13 5 -14 0 -19 -2 -12 -5z"/>
<path d="M1085 4051 c11 -4 23 -7 28 -4 4 2 7 -1 7 -6 0 -6 10 -11 22 -11 36
0 6 20 -38 26 -28 3 -33 2 -19 -5z"/>
<path d="M1248 4053 c-20 -5 -23 -18 -8 -28 5 -3 18 3 30 15 19 19 14 23 -22
13z"/>
<path d="M1370 4035 c0 -9 6 -12 15 -9 8 4 12 10 9 15 -8 14 -24 10 -24 -6z"/>
<path d="M1181 4021 c-13 -24 -1 -34 29 -23 21 8 21 8 1 26 -19 17 -20 17 -30
-3z"/>
<path d="M1305 4030 c3 -5 13 -10 21 -10 8 0 14 5 14 10 0 6 -9 10 -21 10 -11
0 -17 -4 -14 -10z"/>
<path d="M1418 4023 c7 -3 16 -2 19 1 4 3 -2 6 -13 5 -11 0 -14 -3 -6 -6z"/>
<path d="M1538 4023 c7 -3 16 -2 19 1 4 3 -2 6 -13 5 -11 0 -14 -3 -6 -6z"/>
<path d="M780 3990 c-8 -5 -10 -10 -5 -10 6 0 17 5 25 10 8 5 11 10 5 10 -5 0
-17 -5 -25 -10z"/>
<path d="M1240 3992 c0 -12 48 -37 56 -29 3 3 -8 13 -25 22 -17 8 -31 12 -31
7z"/>
<path d="M860 3980 c0 -5 5 -10 11 -10 5 0 7 5 4 10 -3 6 -8 10 -11 10 -2 0
-4 -4 -4 -10z"/>
<path d="M955 3970 c-3 -5 -1 -10 4 -10 6 0 11 5 11 10 0 6 -2 10 -4 10 -3 0
-8 -4 -11 -10z"/>
<path d="M736 3955 c-11 -8 -15 -15 -9 -15 6 0 16 7 23 15 16 19 11 19 -14 0z"/>
<path d="M1538 3948 c12 -12 24 -19 28 -15 10 10 -16 37 -34 37 -13 0 -12 -4
6 -22z"/>
<path d="M1429 3941 c32 -32 80 -52 114 -49 l32 4 -50 22 c-27 13 -58 27 -67
32 -10 6 -25 10 -33 10 -12 0 -11 -4 4 -19z"/>
<path d="M1246 3935 c25 -19 40 -19 24 0 -7 8 -20 15 -28 15 -13 0 -12 -3 4
-15z"/>
<path d="M1761 3936 c9 -8 98 -13 93 -5 -3 5 -26 9 -51 9 -26 0 -44 -2 -42 -4z"/>
<path d="M1387 3900 c3 -11 12 -20 19 -20 17 0 18 12 2 28 -18 18 -27 15 -21
-8z"/>
<path d="M1000 3900 c0 -5 5 -10 10 -10 6 0 10 5 10 10 0 6 -4 10 -10 10 -5 0
-10 -4 -10 -10z"/>
<path d="M1195 3896 c42 -13 59 -11 35 4 -8 6 -28 9 -45 9 -28 -1 -28 -1 10
-13z"/>
<path d="M1446 3892 c-3 -5 13 -26 35 -48 33 -32 41 -36 49 -24 14 21 13 23
-12 39 -13 8 -33 20 -45 28 -11 8 -24 10 -27 5z"/>
<path d="M1420 3866 c0 -2 7 -7 16 -10 8 -3 12 -2 9 4 -6 10 -25 14 -25 6z"/>
<path d="M1800 3860 c0 -5 5 -10 10 -10 6 0 10 5 10 10 0 6 -4 10 -10 10 -5 0
-10 -4 -10 -10z"/>
<path d="M1558 3813 c7 -3 16 -2 19 1 4 3 -2 6 -13 5 -11 0 -14 -3 -6 -6z"/>
<path d="M236 3753 c-29 -75 -48 -273 -26 -273 6 0 10 1 10 3 0 2 9 46 20 97
21 100 25 157 11 178 -6 11 -10 10 -15 -5z"/>
<path d="M3605 3590 c-3 -5 1 -10 9 -10 9 0 16 5 16 10 0 6 -4 10 -9 10 -6 0
-13 -4 -16 -10z"/>
<path d="M3713 2317 c2 -7 16 -13 31 -15 19 -2 27 1 24 9 -2 6 -16 13 -32 15
-17 2 -26 -1 -23 -9z"/>
<path d="M3960 2280 c0 -5 9 -10 20 -10 11 0 20 5 20 10 0 6 -9 10 -20 10 -11
0 -20 -4 -20 -10z"/>
<path d="M4000 2219 c0 -5 5 -7 10 -4 6 3 10 8 10 11 0 2 -4 4 -10 4 -5 0 -10
-5 -10 -11z"/>
</g>
</svg>
